<svg width="256" height="256" viewBox="0 0 122 108" xmlns="http://www.w3.org/2000/svg">
<g stroke-linecap="round" stroke-linejoin="round">
  <ellipse cx="16" cy="54" rx="13" ry="16" fill="none" stroke="#3971ED" stroke-width="2.8"/>
  <ellipse cx="16" cy="54" rx="6" ry="8.5" fill="none" stroke="#3971ED" stroke-width="2"/>
  <!-- ellipse cx="16" cy="54" rx="2.5" ry="4" fill="#EDB539" -->

  <rect x="28" y="50" width="69" height="9" rx="2" fill="#3971ED"/>
  <rect x="53.5" y="57" width="6" height="10" rx="1.5" fill="#3971ED"/>
  <rect x="66.5" y="57" width="6" height="15" rx="1.5" fill="#3971ED"/>

  <path d="M29,54 Q63,9 97,54" fill="none" stroke="#3971ED" stroke-width="3.8" stroke-linecap="butt"/>
  <line x1="46" y1="37" x2="46" y2="50" stroke="#3971ED" stroke-width="2.4"/>
  <line x1="63" y1="32" x2="63" y2="50" stroke="#3971ED" stroke-width="2.4"/>
  <line x1="80" y1="37" x2="80" y2="50" stroke="#3971ED" stroke-width="2.4"/>

  <rect x="97" y="42" width="22" height="30" rx="3.5" fill="none" stroke="#3971ED" stroke-width="2.8"/>
  <path d="M101,42 L101,35 Q101,30 108,30 Q115,30 115,35 L115,42" fill="none" stroke="#3971ED" stroke-width="2.8"/>
  <circle cx="108" cy="55" r="5" fill="#EDB539"/>
  <rect x="106.5" y="58" width="3" height="8" rx="1" fill="#EDB539"/>
</g>
</svg>
