<?xml version="1.0" encoding="UTF-8" standalone="no"?>
<!-- Created with Inkscape (http://www.inkscape.org/) -->

<svg
   width="210mm"
   height="297mm"
   viewBox="0 0 210 297"
   version="1.1"
   id="svg1"
   xml:space="preserve"
   inkscape:version="1.4.3 (0d15f75, 2025-12-25)"
   sodipodi:docname="icon2.svg"
   xmlns:inkscape="http://www.inkscape.org/namespaces/inkscape"
   xmlns:sodipodi="http://sodipodi.sourceforge.net/DTD/sodipodi-0.dtd"
   xmlns="http://www.w3.org/2000/svg"
   xmlns:svg="http://www.w3.org/2000/svg"><sodipodi:namedview
     id="namedview1"
     pagecolor="#ffffff"
     bordercolor="#000000"
     borderopacity="0.25"
     inkscape:showpageshadow="2"
     inkscape:pageopacity="0.0"
     inkscape:pagecheckerboard="true"
     inkscape:deskcolor="#d1d1d1"
     inkscape:document-units="mm"
     inkscape:zoom="1.4702524"
     inkscape:cx="510.1165"
     inkscape:cy="592.07522"
     inkscape:window-width="2560"
     inkscape:window-height="1406"
     inkscape:window-x="3445"
     inkscape:window-y="1728"
     inkscape:window-maximized="1"
     inkscape:current-layer="layer1" /><defs
     id="defs1" /><g
     inkscape:label="Layer 1"
     inkscape:groupmode="layer"
     id="layer1"><g
       id="g1"
       transform="matrix(0.38099345,0,0,0.38099345,77.730162,97.985748)"
       inkscape:export-filename="g1.png"
       inkscape:export-xdpi="96"
       inkscape:export-ydpi="96"><path
         style="fill:#f1ac31"
         d="m -12.714745,298.14945 c -9.178537,-1.00209 -17.75088,-3.52551 -26.418924,-7.77688 -11.536005,-5.65799 -20.208813,-12.71011 -28.864199,-23.47034 -5.178403,-6.4377 -10.564589,-16.31153 -12.751787,-23.37628 -0.29284,-0.94589 -0.719948,-2.32855 -0.94913,-3.07259 -1.337723,-4.34289 -2.281032,-9.03022 -3.002416,-14.91908 -0.441371,-3.60303 -0.469966,-9.05234 -0.469966,-89.56145 0,-81.041361 0.02617,-85.949062 0.478937,-89.826041 0.920584,-7.882773 2.567677,-14.498652 5.396849,-21.677526 1.815645,-4.607102 6.381478,-13.096918 8.333999,-15.4964302 0.118413,-0.1455208 1.042872,-1.3837904 2.054354,-2.7517101 4.878517,-6.59766462 11.209035,-12.7512107 18.264848,-17.7542477 9.714767,-6.88841 19.591156,-11.168524 31.087677,-13.472413 7.719521,-1.546984 0.955378,-1.440691 95.382286,-1.498848 92.314287,-0.05686 90.339487,-0.08168 97.234367,1.222195 7.13623,1.349514 11.87189,2.794697 17.85938,5.450149 10.185,4.517054 17.79064,9.709626 25.52675,17.4277921 6.30666,6.2920293 10.63831,12.3381416 14.90825,20.8088819 2.97906,5.909902 4.66467,10.422354 6.26135,16.761949 2.30868,9.166541 2.10166,-0.11953 2.20009,98.689579 0.0911,91.50032 0.0939,91.24478 -1.03966,97.63124 -2.28974,12.90064 -8.58335,26.70312 -16.56275,36.32364 -8.36082,10.08039 -17.32611,17.25265 -28.15461,22.52377 -8.72,4.24474 -16.64635,6.60264 -25.89359,7.70272 -4.25929,0.5067 -6.47627,0.51866 -91.01666,0.49111 -70.0405166,-0.0228 -87.267221,-0.0955 -89.865445,-0.37919 z m 195.566485,-62.3558 c 5.59973,-1.907 9.50738,-5.70666 11.68908,-11.36608 l 0.74633,-1.936 0.0706,-45.06831 c 0.0692,-44.19031 0.0603,-45.11147 -0.4555,-47.28349 -1.34103,-5.64644 -4.72848,-10.02468 -9.59419,-12.40034 -2.08252,-1.01679 -4.56147,-1.74264 -5.95151,-1.74264 h -0.87045 v -15.81891 c 0,-16.324117 -0.11858,-18.725951 -1.18495,-24.000884 -0.83139,-4.112603 -3.01752,-10.075213 -5.08366,-13.865611 -9.21337,-16.902153 -27.24235,-27.425124 -45.69379,-26.670081 -22.37898,0.91576 -41.663103,16.905304 -46.99639,38.967346 -1.357,5.613456 -1.386555,6.09019 -1.503794,24.256366 L 77.912963,115.99679 H 76.97471 c -1.317425,0 -3.907993,0.71031 -5.493661,1.50631 -5.171632,2.59615 -8.615399,6.96476 -9.928031,12.59428 -0.534707,2.29321 -0.541901,2.91075 -0.541901,46.52129 0,43.77979 0.0052,44.21743 0.545832,46.33505 0.890038,3.48593 2.531615,6.20111 5.334183,8.82278 2.620976,2.45179 5.717113,3.98205 9.264087,4.57875 0.780319,0.13127 24.071391,0.21775 52.986101,0.19674 l 51.59375,-0.0375 z M 75.616061,225.51893 c -1.852853,-0.92588 -2.759622,-1.88615 -3.733172,-3.9534 l -0.685314,-1.45521 V 176.0572 132.00408 l 0.61327,-1.23299 c 0.80451,-1.61747 2.522653,-3.34513 4.0125,-4.03471 l 1.195063,-0.55314 h 51.329162 c 49.51994,0 51.36408,0.0174 52.31971,0.49239 1.41012,0.70095 2.97252,2.30467 3.82904,3.93029 l 0.73667,1.39816 v 44.18541 44.18542 l -0.73549,1.49768 c -0.9238,1.88117 -2.33937,3.17313 -4.26691,3.89431 l -1.49975,0.56113 H 127.98303 77.23522 Z M 87.998616,100.94357 c 0,-8.630936 0.118685,-16.209769 0.278186,-17.764067 1.004669,-9.790241 4.604724,-17.904522 10.894142,-24.55466 4.545896,-4.806613 9.400276,-8.086239 15.286006,-10.327227 4.3899,-1.671455 7.51032,-2.326961 12.30312,-2.584515 5.39633,-0.289986 12.81568,1.249994 17.99229,3.734528 7.94487,3.813168 15.31226,10.986967 19.0156,18.51593 1.99962,4.065281 2.92827,6.931299 4.16161,12.843645 0.20183,0.967512 0.34377,7.114715 0.42353,18.342262 l 0.11997,16.887054 -3.83279,-0.0685 -3.83279,-0.0685 -0.12068,-15.76026 C 160.57302,85.279413 160.53398,84.235395 160.0035,81.865457 157.92345,72.572702 152.78863,64.967383 145.34412,60.153065 136.2155,54.249639 124.20185,53.581716 114.31219,58.42778 104.73975,63.118407 98.319629,71.692339 96.266859,82.526916 95.87475,84.596479 95.814919,86.916812 95.80976,100.254 c -0.0038,9.91762 -0.09953,15.41459 -0.270519,15.54022 -0.145521,0.10691 -1.901693,0.19621 -3.902604,0.19843 l -3.638021,0.004 z m 17.842894,14.76196 c -0.25468,-0.41207 0.13451,-29.376266 0.42271,-31.458743 0.93058,-6.724407 5.89929,-13.531847 12.16084,-16.661084 8.03922,-4.017641 17.50234,-2.777846 24.17568,3.167335 3.49528,3.113893 5.72339,6.736978 7.07801,11.509374 0.58868,2.073942 0.60277,2.435771 0.69801,17.925518 l 0.0972,15.80886 h -22.22623 c -15.88907,0 -22.27755,-0.0831 -22.40623,-0.29126 z M 14.762057,235.27938 c 1.908471,-1.2677 12.097963,-11.95834 13.128959,-13.77468 0.435315,-0.76691 1.010968,-2.04922 1.27923,-2.84959 0.465904,-1.39003 0.490546,-3.61771 0.550225,-49.74166 0.03436,-26.55755 0.06413,-48.47289 0.06615,-48.70076 0.002,-0.22786 0.509684,-0.69588 1.128148,-1.04003 1.71283,-0.95313 5.330458,-3.30731 6.158578,-4.0077 4.748347,-4.01598 7.379667,-6.84634 9.981563,-10.7366 3.077954,-4.602038 5.616564,-10.688059 6.8179,-16.345115 0.714932,-3.366589 1.01112,-11.071459 0.541745,-14.092594 C 53.079782,65.399414 50.897293,59.573158 46.660385,53.290539 44.217996,49.668889 42.920955,48.177305 39.71216,45.300153 33.327526,39.575397 26.325914,36.07787 17.487161,34.198063 13.336608,33.315332 5.724808,33.31197 1.0829955,34.190818 -11.0995,36.497365 -21.908782,43.633613 -28.878207,53.971091 c -1.343679,1.993026 -3.773339,6.775127 -4.693316,9.237467 -0.778751,2.084346 -1.807415,5.9689 -2.313132,8.735105 -0.518175,2.83435 -0.429906,12.387029 0.140577,15.213541 1.906634,9.446588 6.289079,17.784406 12.708776,24.179066 2.401368,2.392 5.942321,5.08423 9.626284,7.31898 l 1.912152,1.15994 0.07222,15.48715 0.07222,15.48715 0.692624,1.45521 c 0.380943,0.80036 2.5055093,3.87021 4.7212585,6.82189 2.2772396,3.03358 3.9681035,5.52442 3.8893982,5.72952 -0.07658,0.19957 -0.7831377,1.35643 -1.570128,2.57082 -3.8016887,5.8663 -4.1612784,6.59661 -4.1612784,8.45141 0,1.46092 0.9236758,3.35073 3.4790531,7.11803 1.2338436,1.81901 2.3236645,3.44254 2.4218243,3.60784 0.09816,0.16531 -0.4184022,1.11781 -1.1479155,2.11667 -2.3268358,3.18594 -2.4915258,3.68747 -2.594651,7.90153 l -0.090647,3.70416 -1.5206871,1.71979 c -3.1260421,3.53534 -4.0541811,5.72374 -4.0397291,9.525 0.0199,5.23527 0.724332,6.41127 8.784419,14.66498 8.1505841,8.34638 8.354398,8.5407 9.9115964,9.44977 1.2364921,0.72185 1.4980315,0.7727 3.6057246,0.70105 2.11417,-0.0719 2.374346,-0.14489 3.733615,-1.04778 z M 7.3576956,221.76397 c -9.1334281,-9.4712 -8.5236583,-8.75161 -8.5236583,-10.05883 0,-1.32579 0.28677205,-1.78698 2.7031687,-4.34723 2.3762509,-2.51771 2.6798343,-3.40419 2.8041906,-8.18834 l 0.1041664,-4.00741 1.4277851,-1.81342 c 3.3262539,-4.22464 3.8505417,-5.38824 3.4323121,-7.61759 -0.102474,-0.54623 -1.3433449,-2.68766 -2.9496226,-5.09029 -1.5250035,-2.28106 -2.8406266,-4.4179 -2.9236071,-4.74852 -0.1124215,-0.44792 0.3069932,-1.29584 1.6456514,-3.32699 3.9520641,-5.99645 4.0747049,-6.23887 4.0747049,-8.05428 0,-0.90672 -0.1188243,-1.96112 -0.264054,-2.3431 -0.2412849,-0.63463 -8.72263974,-11.993 -9.64091691,-12.91128 -0.34028219,-0.34028 -0.40542349,-2.71576 -0.47051679,-17.15816 -0.069494,-15.41886 -0.1129126,-16.83155 -0.5414005,-17.61542 -0.7060559,-1.29167 -1.4389894,-1.87205 -3.9242339,-3.10745 -9.5223767,-4.73354 -15.5304527,-11.545213 -18.7659657,-21.275954 -2.33424,-7.020183 -2.422269,-13.920323 -0.269621,-21.134254 1.656985,-5.552868 4.258029,-10.040909 8.222631,-14.187955 5.527987,-5.782375 12.0730802,-9.326961 19.6650524,-10.649882 3.3521884,-0.584128 11.0302946,-0.37078 14.0588166,0.390645 2.767081,0.695693 5.653721,1.742979 7.871647,2.855867 13.761555,6.905132 21.730323,22.779019 18.985107,37.818574 -0.633861,3.472581 -0.973699,4.620008 -2.277126,7.688466 -3.411459,8.031073 -9.470196,14.398193 -17.466502,18.355513 -2.651299,1.31211 -3.337585,1.77685 -3.96875,2.68758 l -0.763126,1.10114 -0.132292,50.71403 -0.132291,50.71403 -4.204699,4.40812 c -2.312584,2.42446 -4.247773,4.40812 -4.300421,4.40812 -0.05265,0 -1.6170415,-1.57758 -3.4764294,-3.50573 z M 12.801962,81.181221 c 5.288682,-1.088493 9.611562,-4.872 11.831698,-10.355438 0.958449,-2.36724 1.210848,-6.88818 0.543217,-9.730036 -1.342694,-5.715346 -5.845932,-10.481639 -11.462153,-12.131711 -7.4502933,-2.188931 -15.6175551,1.334333 -19.0831712,8.232262 -1.5376787,3.060581 -1.9620248,5.082719 -1.8177116,8.661948 0.099417,2.465712 0.2441997,3.233839 0.9475489,5.027084 1.8403048,4.692004 4.9256932,7.851198 9.3003888,9.522862 3.2811952,1.253815 6.2567629,1.489971 9.7401831,0.773029 z M 6.232318,70.818869 C 3.0407326,69.151565 1.7701058,65.03331 3.4468528,61.790839 c 1.3780968,-2.664946 5.3054057,-4.20042 7.9341702,-3.102052 0.488579,0.204141 1.386345,0.821098 1.995038,1.371015 1.891614,1.708959 2.609261,3.830079 2.099712,6.206027 -0.933752,4.353935 -5.406912,6.557275 -9.243455,4.55304 z m -84.987345,22.622189 c -0.03727,-23.465234 -0.06776,-4.266406 -0.06776,42.664062 0,46.93046 0.03049,66.12929 0.06776,42.66406 0.03727,-23.46524 0.03727,-61.86289 0,-85.328122 z"
         id="path2" /><path
         style="fill:#2f74f7"
         d="m -8.045129,291.93799 c -10.913616,-0.55616 -23.496483,-4.38779 -32.796735,-9.98697 -4.849232,-2.91947 -9.870167,-6.69452 -14.017853,-10.53951 -5.161941,-4.78521 -12.306546,-14.26261 -15.585784,-20.6747 -3.605973,-7.05098 -6.287008,-15.52924 -7.63499,-24.1442 -0.451346,-2.88455 -0.476093,-7.61546 -0.476093,-91.01666 V 47.601997 l 0.741866,-4.101041 c 0.995854,-5.505094 1.771765,-8.480145 3.391434,-13.003666 2.381713,-6.651809 4.487317,-10.872312 8.507585,-17.052725 4.388422,-6.7463808 11.37843,-13.96457911 18.712239,-19.3231028 8.549095,-6.2464852 18.441036,-10.5647992 29.024686,-12.6706862 7.566883,-1.505625 3.871513,-1.449817 95.999966,-1.449817 55.912648,0 85.665838,0.09225 87.473868,0.271218 6.50374,0.643767 12.74321,2.038382 18.48272,4.131164 3.90275,1.423052 12.53026,5.7910046 16.11485,8.1586669 10.71763,7.07910412 20.16325,17.7849451 25.68408,29.1108241 3.43681,7.050547 4.76257,10.877091 6.32513,18.256249 1.74295,8.231055 1.6421,1.899003 1.55083,97.366659 -0.0909,95.08841 0.0376,87.68725 -1.65311,95.22551 -1.64088,7.31613 -4.752,15.44056 -8.01351,20.92657 -3.72907,6.27249 -6.92451,10.46948 -11.68375,15.34583 -4.17745,4.28024 -5.8381,5.75706 -9.81847,8.73154 -4.01151,2.99776 -6.79622,4.73742 -10.70084,6.68501 -7.51321,3.74754 -14.28916,5.89185 -22.88646,7.24265 l -3.83646,0.60277 -84.53437,0.0389 c -46.493904,0.0214 -86.260777,-0.0491 -88.370829,-0.15657 z M 182.85174,235.79365 c 5.59973,-1.907 9.50738,-5.70666 11.68908,-11.36608 l 0.74633,-1.936 0.0706,-45.06831 c 0.0692,-44.19031 0.0603,-45.11147 -0.4555,-47.28349 -1.34103,-5.64644 -4.72848,-10.02468 -9.59419,-12.40034 -2.08252,-1.01679 -4.56147,-1.74264 -5.95151,-1.74264 h -0.87045 v -15.81891 c 0,-16.324117 -0.11858,-18.725951 -1.18495,-24.000884 -0.83139,-4.112603 -3.01752,-10.075213 -5.08366,-13.865611 -9.21337,-16.902153 -27.24235,-27.425124 -45.69379,-26.670081 -22.37898,0.91576 -41.663103,16.905304 -46.99639,38.967346 -1.357,5.613456 -1.386555,6.09019 -1.503794,24.256366 L 77.912963,115.99679 H 76.97471 c -1.317425,0 -3.907993,0.71031 -5.493661,1.50631 -5.171632,2.59615 -8.615399,6.96476 -9.928031,12.59428 -0.534707,2.29321 -0.541901,2.91075 -0.541901,46.52129 0,43.77979 0.0052,44.21743 0.545832,46.33505 0.890038,3.48593 2.531615,6.20111 5.334183,8.82278 2.620976,2.45179 5.717113,3.98205 9.264087,4.57875 0.780319,0.13127 24.071391,0.21775 52.986101,0.19674 l 51.59375,-0.0375 z M 75.616061,225.51893 c -1.852853,-0.92588 -2.759622,-1.88615 -3.733172,-3.9534 l -0.685314,-1.45521 V 176.0572 132.00408 l 0.61327,-1.23299 c 0.80451,-1.61747 2.522653,-3.34513 4.0125,-4.03471 l 1.195063,-0.55314 h 51.329162 c 49.51994,0 51.36408,0.0174 52.31971,0.49239 1.41012,0.70095 2.97252,2.30467 3.82904,3.93029 l 0.73667,1.39816 v 44.18541 44.18542 l -0.73549,1.49768 c -0.9238,1.88117 -2.33937,3.17313 -4.26691,3.89431 l -1.49975,0.56113 H 127.98303 77.23522 Z M 87.998616,100.94357 c 0,-8.630936 0.118685,-16.209769 0.278186,-17.764067 1.004669,-9.790241 4.604724,-17.904522 10.894142,-24.55466 4.545896,-4.806613 9.400276,-8.086239 15.286006,-10.327227 4.3899,-1.671455 7.51032,-2.326961 12.30312,-2.584515 5.39633,-0.289986 12.81568,1.249994 17.99229,3.734528 7.94487,3.813168 15.31226,10.986967 19.0156,18.51593 1.99962,4.065281 2.92827,6.931299 4.16161,12.843645 0.20183,0.967512 0.34377,7.114715 0.42353,18.342262 l 0.11997,16.887054 -3.83279,-0.0685 -3.83279,-0.0685 -0.12068,-15.76026 C 160.57302,85.279413 160.53398,84.235395 160.0035,81.865457 157.92345,72.572702 152.78863,64.967383 145.34412,60.153065 136.2155,54.249639 124.20185,53.581716 114.31219,58.42778 104.73975,63.118407 98.319629,71.692339 96.266859,82.526916 95.87475,84.596479 95.814919,86.916812 95.80976,100.254 c -0.0038,9.91762 -0.09953,15.41459 -0.270519,15.54022 -0.145521,0.10691 -1.901693,0.19621 -3.902604,0.19843 l -3.638021,0.004 z m 17.842894,14.76196 c -0.25468,-0.41207 0.13451,-29.376266 0.42271,-31.458743 0.93058,-6.724407 5.89929,-13.531847 12.16084,-16.661084 8.03922,-4.017641 17.50234,-2.777846 24.17568,3.167335 3.49528,3.113893 5.72339,6.736978 7.07801,11.509374 0.58868,2.073942 0.60277,2.435771 0.69801,17.925518 l 0.0972,15.80886 h -22.22623 c -15.88907,0 -22.27755,-0.0831 -22.40623,-0.29126 z M 14.762057,235.27938 c 1.908471,-1.2677 12.097963,-11.95834 13.128959,-13.77468 0.435315,-0.76691 1.010968,-2.04922 1.27923,-2.84959 0.465904,-1.39003 0.490546,-3.61771 0.550225,-49.74166 0.03436,-26.55755 0.06413,-48.47289 0.06615,-48.70076 0.002,-0.22786 0.509684,-0.69588 1.128148,-1.04003 1.71283,-0.95313 5.330458,-3.30731 6.158578,-4.0077 4.748347,-4.01598 7.379667,-6.84634 9.981563,-10.7366 3.077954,-4.602038 5.616564,-10.688059 6.8179,-16.345115 0.714932,-3.366589 1.01112,-11.071459 0.541745,-14.092594 C 53.079782,65.399414 50.897293,59.573158 46.660385,53.290539 44.217996,49.668889 42.920955,48.177305 39.71216,45.300153 33.327526,39.575397 26.325914,36.07787 17.487161,34.198063 13.336608,33.315332 5.724808,33.31197 1.0829955,34.190818 -11.0995,36.497365 -21.908782,43.633613 -28.878207,53.971091 c -1.343679,1.993026 -3.773339,6.775127 -4.693316,9.237467 -0.778751,2.084346 -1.807415,5.9689 -2.313132,8.735105 -0.518175,2.83435 -0.429906,12.387029 0.140577,15.213541 1.906634,9.446588 6.289079,17.784406 12.708776,24.179066 2.401368,2.392 5.942321,5.08423 9.626284,7.31898 l 1.912152,1.15994 0.07222,15.48715 0.07222,15.48715 0.692624,1.45521 c 0.380943,0.80036 2.5055093,3.87021 4.7212585,6.82189 2.2772396,3.03358 3.9681035,5.52442 3.8893982,5.72952 -0.07658,0.19957 -0.7831377,1.35643 -1.570128,2.57082 -3.8016887,5.8663 -4.1612784,6.59661 -4.1612784,8.45141 0,1.46092 0.9236758,3.35073 3.4790531,7.11803 1.2338436,1.81901 2.3236645,3.44254 2.4218243,3.60784 0.09816,0.16531 -0.4184022,1.11781 -1.1479155,2.11667 -2.3268358,3.18594 -2.4915258,3.68747 -2.594651,7.90153 l -0.090647,3.70416 -1.5206871,1.71979 c -3.1260421,3.53534 -4.0541811,5.72374 -4.0397291,9.525 0.0199,5.23527 0.724332,6.41127 8.784419,14.66498 8.1505841,8.34638 8.354398,8.5407 9.9115964,9.44977 1.2364921,0.72185 1.4980315,0.7727 3.6057246,0.70105 2.11417,-0.0719 2.374346,-0.14489 3.733615,-1.04778 z M 7.3576956,221.76397 c -9.1334281,-9.4712 -8.5236583,-8.75161 -8.5236583,-10.05883 0,-1.32579 0.28677205,-1.78698 2.7031687,-4.34723 2.3762509,-2.51771 2.6798343,-3.40419 2.8041906,-8.18834 l 0.1041664,-4.00741 1.4277851,-1.81342 c 3.3262539,-4.22464 3.8505417,-5.38824 3.4323121,-7.61759 -0.102474,-0.54623 -1.3433449,-2.68766 -2.9496226,-5.09029 -1.5250035,-2.28106 -2.8406266,-4.4179 -2.9236071,-4.74852 -0.1124215,-0.44792 0.3069932,-1.29584 1.6456514,-3.32699 3.9520641,-5.99645 4.0747049,-6.23887 4.0747049,-8.05428 0,-0.90672 -0.1188243,-1.96112 -0.264054,-2.3431 -0.2412849,-0.63463 -8.72263974,-11.993 -9.64091691,-12.91128 -0.34028219,-0.34028 -0.40542349,-2.71576 -0.47051679,-17.15816 -0.069494,-15.41886 -0.1129126,-16.83155 -0.5414005,-17.61542 -0.7060559,-1.29167 -1.4389894,-1.87205 -3.9242339,-3.10745 -9.5223767,-4.73354 -15.5304527,-11.545213 -18.7659657,-21.275954 -2.33424,-7.020183 -2.422269,-13.920323 -0.269621,-21.134254 1.656985,-5.552868 4.258029,-10.040909 8.222631,-14.187955 5.527987,-5.782375 12.0730802,-9.326961 19.6650524,-10.649882 3.3521884,-0.584128 11.0302946,-0.37078 14.0588166,0.390645 2.767081,0.695693 5.653721,1.742979 7.871647,2.855867 13.761555,6.905132 21.730323,22.779019 18.985107,37.818574 -0.633861,3.472581 -0.973699,4.620008 -2.277126,7.688466 -3.411459,8.031073 -9.470196,14.398193 -17.466502,18.355513 -2.651299,1.31211 -3.337585,1.77685 -3.96875,2.68758 l -0.763126,1.10114 -0.132292,50.71403 -0.132291,50.71403 -4.204699,4.40812 c -2.312584,2.42446 -4.247773,4.40812 -4.300421,4.40812 -0.05265,0 -1.6170415,-1.57758 -3.4764294,-3.50573 z M 12.801962,81.181221 c 5.288682,-1.088493 9.611562,-4.872 11.831698,-10.355438 0.958449,-2.36724 1.210848,-6.88818 0.543217,-9.730036 -1.342694,-5.715346 -5.845932,-10.481639 -11.462153,-12.131711 -7.4502933,-2.188931 -15.6175551,1.334333 -19.0831712,8.232262 -1.5376787,3.060581 -1.9620248,5.082719 -1.8177116,8.661948 0.099417,2.465712 0.2441997,3.233839 0.9475489,5.027084 1.8403048,4.692004 4.9256932,7.851198 9.3003888,9.522862 3.2811952,1.253815 6.2567629,1.489971 9.7401831,0.773029 z M 6.232318,70.818869 C 3.0407326,69.151565 1.7701058,65.03331 3.4468528,61.790839 c 1.3780968,-2.664946 5.3054057,-4.20042 7.9341702,-3.102052 0.488579,0.204141 1.386345,0.821098 1.995038,1.371015 1.891614,1.708959 2.609261,3.830079 2.099712,6.206027 -0.933752,4.353935 -5.406912,6.557275 -9.243455,4.55304 z"
         id="path1" /></g></g></svg>
